<svg height="512" viewBox="0 0 512 512" width="512" xmlns="http://www.w3.org/2000/svg"><g id="Flat"><path d="m80 256h352v224h-352z" fill="#ba8b5d"/><path d="m112 328h80v152h-80z" fill="#d4e4f0"/><path d="m200 480h-16v-144h-64v144h-16v-152a7.99977 7.99977 0 0 1 8-8h80a7.99977 7.99977 0 0 1 8 8z" fill="#c1d7e6"/><path d="m224 328h176v80h-176z" fill="#d4e4f0"/><path d="m120 24h272v128h-272z" fill="#529ddf"/><path d="m184 152h32v32h-32z" fill="#68737f"/><path d="m296 152h32v32h-32z" fill="#68737f"/><path d="m130.28 184-33.40587 100.21769a28.93114 28.93114 0 0 1 -27.44649 19.78231h-.00006a28.93114 28.93114 0 0 1 -26.21692-41.1657l36.78934-78.8343z" fill="#529ddf"/><path d="m230.86 184-6.19956 92.99333a28.93114 28.93114 0 0 1 -28.86707 27.00667h-3.933a28.93114 28.93114 0 0 1 -28.36937-34.605l17.079-85.395z" fill="#529ddf"/><path d="m130.28 184h50.29l-19.34855 96.74272a28.93114 28.93114 0 0 1 -28.36931 23.25728h-2.43229a28.93115 28.93115 0 0 1 -27.4465-38.08z" fill="#fae7cb"/><path d="m258.22334 304h-4.43925a28.93113 28.93113 0 0 1 -28.86709-30.85561l5.943-89.14439h50.28l5.95024 89.142a28.93114 28.93114 0 0 1 -28.8669 30.858z" fill="#fae7cb"/><path d="m320.13961 304h-3.92522a28.93114 28.93114 0 0 1 -28.8669-27.00427l-6.20749-92.99573h50.28992l17.079 85.395a28.93115 28.93115 0 0 1 -28.36931 34.605z" fill="#529ddf"/><path d="m381.57014 304h-2.42234a28.93114 28.93114 0 0 1 -28.36932-23.25728l-19.34855-96.74272h50.28l27.30668 81.92a28.93115 28.93115 0 0 1 -27.44647 38.08z" fill="#fae7cb"/><path d="m442.57242 304h-.01007a28.93114 28.93114 0 0 1 -27.44649-19.78231l-33.40586-100.21769h50.29l36.78934 78.8343a28.93114 28.93114 0 0 1 -26.21692 41.1657z" fill="#529ddf"/><circle cx="168" cy="408" fill="#c1d7e6" r="8"/><path d="m360 432h112v48h-112z" fill="#7ab355"/><path d="m40 432h112v48h-112z" fill="#7ab355"/><path d="m400 416h-176a7.99977 7.99977 0 0 1 -8-8v-80a7.99977 7.99977 0 0 1 8-8h176a7.99977 7.99977 0 0 1 8 8v80a7.99977 7.99977 0 0 1 -8 8zm-168-16h160v-64h-160z" fill="#c1d7e6"/><g fill="#68737f"><path d="m16 472h480v16h-480z"/><path d="m160 88h32v32h-32z"/><path d="m320 88h32v32h-32z"/></g><path d="m192 88h32v16h-32z" fill="#d4e4f0"/><rect fill="#e04446" height="48" rx="16" width="64" x="224" y="72"/><path d="m288 88h32v16h-32z" fill="#d4e4f0"/><path d="m168 56h16v32h-16z" fill="#d4e4f0"/><path d="m152 48h48v16h-48z" fill="#e04446"/><path d="m328 56h16v32h-16z" fill="#d4e4f0"/><path d="m312 48h48v16h-48z" fill="#e04446"/><circle cx="256" cy="96" fill="#d4e4f0" r="8"/></g></svg>